# xmcd CD database file
#
# Track frame offsets:
#	150
#	18156
#	36263
#
# Disc length: 669 seconds
#
# Revision: 2
# Processed by: cddbd v1.5.2PL0 Copyright (c) Steve Scherf et al.
# Submitted via: CDex 1.70beta3
#
DISCID=19029b03
DTITLE=B'z - SUPER LOVE SONG
DYEAR=2007
DGENRE=J-pop
TTITLE0=SUPER LOVE SONG
TTITLE1=ここから
TTITLE2=FRICTION
EXTD=YEAR: 2007
EXTT0=
EXTT1=
EXTT2=
PLAYORDER=
